# xmcd
#
# Track frame offsets: 
#        150
#        10245
#        22961
#        34656
#        47036
#        59386
#        70495
#        85793
#        98338
#        109931
#
# Disc length: 1614 seconds
#
# Revision: 0
# Processed by: cddbd v1.5.2PL0 Copyright (c) Steve Scherf et al.
# Submitted via: ExactAudioCopy v1.0b4
#
DISCID=75064c0a
DTITLE=John Lee Hooker - Original Folk Blues (LP)
DYEAR=1975
DGENRE=Blues
TTITLE0=Dimpless
TTITLE1=Hobo Blues
TTITLE2=I Love You Honey
TTITLE3=I' m In The Mood
TTITLE4=Crawling King Snake Blues
TTITLE5=No Shoes
TTITLE6=Tupelo
TTITLE7=Whiskey and Wimmen
TTITLE8=Boogie Chillen
TTITLE9=Boom Boom
EXTD=
EXTT0=
EXTT1=
EXTT2=
EXTT3=
EXTT4=
EXTT5=
EXTT6=
EXTT7=
EXTT8=
EXTT9=
PLAYORDER=
